<?xml version="1.0" encoding="utf-8" standalone="no"?>
<!DOCTYPE svg PUBLIC "-//W3C//DTD SVG 1.1//EN"
  "http://www.w3.org/Graphics/SVG/1.1/DTD/svg11.dtd">
<svg xmlns:xlink="http://www.w3.org/1999/xlink" width="568.16375pt" height="323.436562pt" viewBox="0 0 568.16375 323.436562" xmlns="http://www.w3.org/2000/svg" version="1.1">
 <metadata>
  <rdf:RDF xmlns:dc="http://purl.org/dc/elements/1.1/" xmlns:cc="http://creativecommons.org/ns#" xmlns:rdf="http://www.w3.org/1999/02/22-rdf-syntax-ns#">
   <cc:Work>
    <dc:type rdf:resource="http://purl.org/dc/dcmitype/StillImage"/>
    <dc:date>2026-06-26T15:48:53.240279</dc:date>
    <dc:format>image/svg+xml</dc:format>
    <dc:creator>
     <cc:Agent>
      <dc:title>Matplotlib v3.11.0, https://matplotlib.org/</dc:title>
     </cc:Agent>
    </dc:creator>
   </cc:Work>
  </rdf:RDF>
 </metadata>
 <defs>
  <style type="text/css">*{stroke-linejoin: round; stroke-linecap: butt}</style>
 </defs>
 <g id="figure_1">
  <g id="patch_1">
   <path d="M 0 323.436562 
L 568.16375 323.436562 
L 568.16375 0 
L 0 0 
z
" style="fill: #ffffff"/>
  </g>
  <g id="axes_1">
   <g id="patch_2">
    <path d="M 58.846094 299.235781 
L 560.96375 299.235781 
L 560.96375 22.318125 
L 58.846094 22.318125 
z
" style="fill: #ffffff"/>
   </g>
   <g id="PathCollection_1">
    <defs>
     <path id="m7b89e79e1e" d="M 0 1.732051 
C 0.459345 1.732051 0.899939 1.549551 1.224745 1.224745 
C 1.549551 0.899939 1.732051 0.459345 1.732051 0 
C 1.732051 -0.459345 1.549551 -0.899939 1.224745 -1.224745 
C 0.899939 -1.549551 0.459345 -1.732051 0 -1.732051 
C -0.459345 -1.732051 -0.899939 -1.549551 -1.224745 -1.224745 
C -1.549551 -0.899939 -1.732051 -0.459345 -1.732051 0 
C -1.732051 0.459345 -1.549551 0.899939 -1.224745 1.224745 
C -0.899939 1.549551 -0.459345 1.732051 0 1.732051 
z
" style="stroke: #0b6e4f; stroke-opacity: 0.55"/>
    </defs>
    <g clip-path="url(#p9cd6e25f35)">
     <use xlink:href="#m7b89e79e1e" x="99.015506" y="196.841722" style="fill: #0b6e4f; fill-opacity: 0.55; stroke: #0b6e4f; stroke-opacity: 0.55"/>
     <use xlink:href="#m7b89e79e1e" x="100.980314" y="120.802294" style="fill: #0b6e4f; fill-opacity: 0.55; stroke: #0b6e4f; stroke-opacity: 0.55"/>
     <use xlink:href="#m7b89e79e1e" x="102.945123" y="133.924809" style="fill: #0b6e4f; fill-opacity: 0.55; stroke: #0b6e4f; stroke-opacity: 0.55"/>
     <use xlink:href="#m7b89e79e1e" x="104.909931" y="41.076159" style="fill: #0b6e4f; fill-opacity: 0.55; stroke: #0b6e4f; stroke-opacity: 0.55"/>
     <use xlink:href="#m7b89e79e1e" x="106.874739" y="152.021551" style="fill: #0b6e4f; fill-opacity: 0.55; stroke: #0b6e4f; stroke-opacity: 0.55"/>
     <use xlink:href="#m7b89e79e1e" x="108.839547" y="58.838987" style="fill: #0b6e4f; fill-opacity: 0.55; stroke: #0b6e4f; stroke-opacity: 0.55"/>
     <use xlink:href="#m7b89e79e1e" x="110.804356" y="143.522695" style="fill: #0b6e4f; fill-opacity: 0.55; stroke: #0b6e4f; stroke-opacity: 0.55"/>
     <use xlink:href="#m7b89e79e1e" x="112.769164" y="44.463843" style="fill: #0b6e4f; fill-opacity: 0.55; stroke: #0b6e4f; stroke-opacity: 0.55"/>
     <use xlink:href="#m7b89e79e1e" x="114.733972" y="203.082807" style="fill: #0b6e4f; fill-opacity: 0.55; stroke: #0b6e4f; stroke-opacity: 0.55"/>
     <use xlink:href="#m7b89e79e1e" x="116.69878" y="34.905291" style="fill: #0b6e4f; fill-opacity: 0.55; stroke: #0b6e4f; stroke-opacity: 0.55"/>
     <use xlink:href="#m7b89e79e1e" x="118.663588" y="149.579679" style="fill: #0b6e4f; fill-opacity: 0.55; stroke: #0b6e4f; stroke-opacity: 0.55"/>
     <use xlink:href="#m7b89e79e1e" x="120.628397" y="41.076159" style="fill: #0b6e4f; fill-opacity: 0.55; stroke: #0b6e4f; stroke-opacity: 0.55"/>
     <use xlink:href="#m7b89e79e1e" x="122.593205" y="105.277017" style="fill: #0b6e4f; fill-opacity: 0.55; stroke: #0b6e4f; stroke-opacity: 0.55"/>
     <use xlink:href="#m7b89e79e1e" x="124.558013" y="131.382778" style="fill: #0b6e4f; fill-opacity: 0.55; stroke: #0b6e4f; stroke-opacity: 0.55"/>
     <use xlink:href="#m7b89e79e1e" x="126.522821" y="196.841722" style="fill: #0b6e4f; fill-opacity: 0.55; stroke: #0b6e4f; stroke-opacity: 0.55"/>
     <use xlink:href="#m7b89e79e1e" x="128.48763" y="206.333517" style="fill: #0b6e4f; fill-opacity: 0.55; stroke: #0b6e4f; stroke-opacity: 0.55"/>
     <use xlink:href="#m7b89e79e1e" x="130.452438" y="118.946374" style="fill: #0b6e4f; fill-opacity: 0.55; stroke: #0b6e4f; stroke-opacity: 0.55"/>
     <use xlink:href="#m7b89e79e1e" x="132.417246" y="41.076159" style="fill: #0b6e4f; fill-opacity: 0.55; stroke: #0b6e4f; stroke-opacity: 0.55"/>
     <use xlink:href="#m7b89e79e1e" x="134.382054" y="196.841722" style="fill: #0b6e4f; fill-opacity: 0.55; stroke: #0b6e4f; stroke-opacity: 0.55"/>
     <use xlink:href="#m7b89e79e1e" x="136.346862" y="143.522695" style="fill: #0b6e4f; fill-opacity: 0.55; stroke: #0b6e4f; stroke-opacity: 0.55"/>
     <use xlink:href="#m7b89e79e1e" x="138.311671" y="117.842318" style="fill: #0b6e4f; fill-opacity: 0.55; stroke: #0b6e4f; stroke-opacity: 0.55"/>
     <use xlink:href="#m7b89e79e1e" x="140.276479" y="75.357955" style="fill: #0b6e4f; fill-opacity: 0.55; stroke: #0b6e4f; stroke-opacity: 0.55"/>
     <use xlink:href="#m7b89e79e1e" x="142.241287" y="120.802294" style="fill: #0b6e4f; fill-opacity: 0.55; stroke: #0b6e4f; stroke-opacity: 0.55"/>
     <use xlink:href="#m7b89e79e1e" x="144.206095" y="203.082807" style="fill: #0b6e4f; fill-opacity: 0.55; stroke: #0b6e4f; stroke-opacity: 0.55"/>
    </g>
   </g>
   <g id="PathCollection_2">
    <g clip-path="url(#p9cd6e25f35)">
     <use xlink:href="#m7b89e79e1e" x="224.54492" y="286.648615" style="fill: #0b6e4f; fill-opacity: 0.55; stroke: #0b6e4f; stroke-opacity: 0.55"/>
     <use xlink:href="#m7b89e79e1e" x="233.583038" y="219.99114" style="fill: #0b6e4f; fill-opacity: 0.55; stroke: #0b6e4f; stroke-opacity: 0.55"/>
     <use xlink:href="#m7b89e79e1e" x="242.621156" y="252.469751" style="fill: #0b6e4f; fill-opacity: 0.55; stroke: #0b6e4f; stroke-opacity: 0.55"/>
     <use xlink:href="#m7b89e79e1e" x="251.659274" y="186.215538" style="fill: #0b6e4f; fill-opacity: 0.55; stroke: #0b6e4f; stroke-opacity: 0.55"/>
     <use xlink:href="#m7b89e79e1e" x="260.697392" y="217.930402" style="fill: #0b6e4f; fill-opacity: 0.55; stroke: #0b6e4f; stroke-opacity: 0.55"/>
     <use xlink:href="#m7b89e79e1e" x="269.735509" y="184.808044" style="fill: #0b6e4f; fill-opacity: 0.55; stroke: #0b6e4f; stroke-opacity: 0.55"/>
    </g>
   </g>
   <g id="PathCollection_3">
    <g clip-path="url(#p9cd6e25f35)">
     <use xlink:href="#m7b89e79e1e" x="475.603748" y="158.716566" style="fill: #0b6e4f; fill-opacity: 0.55; stroke: #0b6e4f; stroke-opacity: 0.55"/>
     <use xlink:href="#m7b89e79e1e" x="477.568557" y="91.445146" style="fill: #0b6e4f; fill-opacity: 0.55; stroke: #0b6e4f; stroke-opacity: 0.55"/>
     <use xlink:href="#m7b89e79e1e" x="479.533365" y="195.026406" style="fill: #0b6e4f; fill-opacity: 0.55; stroke: #0b6e4f; stroke-opacity: 0.55"/>
     <use xlink:href="#m7b89e79e1e" x="481.498173" y="220.612388" style="fill: #0b6e4f; fill-opacity: 0.55; stroke: #0b6e4f; stroke-opacity: 0.55"/>
     <use xlink:href="#m7b89e79e1e" x="483.462981" y="194.184182" style="fill: #0b6e4f; fill-opacity: 0.55; stroke: #0b6e4f; stroke-opacity: 0.55"/>
     <use xlink:href="#m7b89e79e1e" x="485.42779" y="184.545292" style="fill: #0b6e4f; fill-opacity: 0.55; stroke: #0b6e4f; stroke-opacity: 0.55"/>
     <use xlink:href="#m7b89e79e1e" x="487.392598" y="262.862894" style="fill: #0b6e4f; fill-opacity: 0.55; stroke: #0b6e4f; stroke-opacity: 0.55"/>
     <use xlink:href="#m7b89e79e1e" x="489.357406" y="211.588878" style="fill: #0b6e4f; fill-opacity: 0.55; stroke: #0b6e4f; stroke-opacity: 0.55"/>
     <use xlink:href="#m7b89e79e1e" x="491.322214" y="236.111748" style="fill: #0b6e4f; fill-opacity: 0.55; stroke: #0b6e4f; stroke-opacity: 0.55"/>
     <use xlink:href="#m7b89e79e1e" x="493.287022" y="162.162733" style="fill: #0b6e4f; fill-opacity: 0.55; stroke: #0b6e4f; stroke-opacity: 0.55"/>
     <use xlink:href="#m7b89e79e1e" x="495.251831" y="210.136489" style="fill: #0b6e4f; fill-opacity: 0.55; stroke: #0b6e4f; stroke-opacity: 0.55"/>
     <use xlink:href="#m7b89e79e1e" x="497.216639" y="262.862894" style="fill: #0b6e4f; fill-opacity: 0.55; stroke: #0b6e4f; stroke-opacity: 0.55"/>
     <use xlink:href="#m7b89e79e1e" x="499.181447" y="197.637045" style="fill: #0b6e4f; fill-opacity: 0.55; stroke: #0b6e4f; stroke-opacity: 0.55"/>
     <use xlink:href="#m7b89e79e1e" x="501.146255" y="279.416302" style="fill: #0b6e4f; fill-opacity: 0.55; stroke: #0b6e4f; stroke-opacity: 0.55"/>
     <use xlink:href="#m7b89e79e1e" x="503.111064" y="158.716566" style="fill: #0b6e4f; fill-opacity: 0.55; stroke: #0b6e4f; stroke-opacity: 0.55"/>
     <use xlink:href="#m7b89e79e1e" x="505.075872" y="195.026406" style="fill: #0b6e4f; fill-opacity: 0.55; stroke: #0b6e4f; stroke-opacity: 0.55"/>
     <use xlink:href="#m7b89e79e1e" x="507.04068" y="200.972523" style="fill: #0b6e4f; fill-opacity: 0.55; stroke: #0b6e4f; stroke-opacity: 0.55"/>
     <use xlink:href="#m7b89e79e1e" x="509.005488" y="184.507466" style="fill: #0b6e4f; fill-opacity: 0.55; stroke: #0b6e4f; stroke-opacity: 0.55"/>
     <use xlink:href="#m7b89e79e1e" x="510.970296" y="185.874229" style="fill: #0b6e4f; fill-opacity: 0.55; stroke: #0b6e4f; stroke-opacity: 0.55"/>
     <use xlink:href="#m7b89e79e1e" x="512.935105" y="226.883091" style="fill: #0b6e4f; fill-opacity: 0.55; stroke: #0b6e4f; stroke-opacity: 0.55"/>
     <use xlink:href="#m7b89e79e1e" x="514.899913" y="205.149286" style="fill: #0b6e4f; fill-opacity: 0.55; stroke: #0b6e4f; stroke-opacity: 0.55"/>
     <use xlink:href="#m7b89e79e1e" x="516.864721" y="205.370557" style="fill: #0b6e4f; fill-opacity: 0.55; stroke: #0b6e4f; stroke-opacity: 0.55"/>
     <use xlink:href="#m7b89e79e1e" x="518.829529" y="154.523843" style="fill: #0b6e4f; fill-opacity: 0.55; stroke: #0b6e4f; stroke-opacity: 0.55"/>
     <use xlink:href="#m7b89e79e1e" x="520.794337" y="108.82438" style="fill: #0b6e4f; fill-opacity: 0.55; stroke: #0b6e4f; stroke-opacity: 0.55"/>
    </g>
   </g>
   <g id="matplotlib.axis_1">
    <g id="xtick_1">
     <g id="line2d_1">
      <defs>
       <path id="m4dde295f07" d="M 0 0 
L 0 3.5 
" style="stroke: #000000; stroke-width: 0.8"/>
      </defs>
      <g>
       <use xlink:href="#m4dde295f07" x="121.610801" y="299.235781" style="stroke: #000000; stroke-width: 0.8"/>
      </g>
     </g>
     <g id="text_1">
      <!-- positive -->
      <g transform="translate(101.998301 313.834219) scale(0.1 -0.1)">
       <defs>
        <path id="DejaVuSans-53" d="M 1159 525 
L 1159 -1331 
L 581 -1331 
L 581 3500 
L 1159 3500 
L 1159 2969 
Q 1341 3281 1617 3432 
Q 1894 3584 2278 3584 
Q 2916 3584 3314 3078 
Q 3713 2572 3713 1747 
Q 3713 922 3314 415 
Q 2916 -91 2278 -91 
Q 1894 -91 1617 61 
Q 1341 213 1159 525 
z
M 3116 1747 
Q 3116 2381 2855 2742 
Q 2594 3103 2138 3103 
Q 1681 3103 1420 2742 
Q 1159 2381 1159 1747 
Q 1159 1113 1420 752 
Q 1681 391 2138 391 
Q 2594 391 2855 752 
Q 3116 1113 3116 1747 
z
" transform="scale(0.015625)"/>
        <path id="DejaVuSans-52" d="M 1959 3097 
Q 1497 3097 1228 2736 
Q 959 2375 959 1747 
Q 959 1119 1226 758 
Q 1494 397 1959 397 
Q 2419 397 2687 759 
Q 2956 1122 2956 1747 
Q 2956 2369 2687 2733 
Q 2419 3097 1959 3097 
z
M 1959 3584 
Q 2709 3584 3137 3096 
Q 3566 2609 3566 1747 
Q 3566 888 3137 398 
Q 2709 -91 1959 -91 
Q 1206 -91 779 398 
Q 353 888 353 1747 
Q 353 2609 779 3096 
Q 1206 3584 1959 3584 
z
" transform="scale(0.015625)"/>
        <path id="DejaVuSans-56" d="M 2834 3397 
L 2834 2853 
Q 2591 2978 2328 3040 
Q 2066 3103 1784 3103 
Q 1356 3103 1142 2972 
Q 928 2841 928 2578 
Q 928 2378 1081 2264 
Q 1234 2150 1697 2047 
L 1894 2003 
Q 2506 1872 2764 1633 
Q 3022 1394 3022 966 
Q 3022 478 2636 193 
Q 2250 -91 1575 -91 
Q 1294 -91 989 -36 
Q 684 19 347 128 
L 347 722 
Q 666 556 975 473 
Q 1284 391 1588 391 
Q 1994 391 2212 530 
Q 2431 669 2431 922 
Q 2431 1156 2273 1281 
Q 2116 1406 1581 1522 
L 1381 1569 
Q 847 1681 609 1914 
Q 372 2147 372 2553 
Q 372 3047 722 3315 
Q 1072 3584 1716 3584 
Q 2034 3584 2315 3537 
Q 2597 3491 2834 3397 
z
" transform="scale(0.015625)"/>
        <path id="DejaVuSans-4c" d="M 603 3500 
L 1178 3500 
L 1178 0 
L 603 0 
L 603 3500 
z
M 603 4863 
L 1178 4863 
L 1178 4134 
L 603 4134 
L 603 4863 
z
" transform="scale(0.015625)"/>
        <path id="DejaVuSans-57" d="M 1172 4494 
L 1172 3500 
L 2356 3500 
L 2356 3053 
L 1172 3053 
L 1172 1153 
Q 1172 725 1289 603 
Q 1406 481 1766 481 
L 2356 481 
L 2356 0 
L 1766 0 
Q 1100 0 847 248 
Q 594 497 594 1153 
L 594 3053 
L 172 3053 
L 172 3500 
L 594 3500 
L 594 4494 
L 1172 4494 
z
" transform="scale(0.015625)"/>
        <path id="DejaVuSans-59" d="M 191 3500 
L 800 3500 
L 1894 563 
L 2988 3500 
L 3597 3500 
L 2284 0 
L 1503 0 
L 191 3500 
z
" transform="scale(0.015625)"/>
        <path id="DejaVuSans-48" d="M 3597 1894 
L 3597 1613 
L 953 1613 
Q 991 1019 1311 708 
Q 1631 397 2203 397 
Q 2534 397 2845 478 
Q 3156 559 3463 722 
L 3463 178 
Q 3153 47 2828 -22 
Q 2503 -91 2169 -91 
Q 1331 -91 842 396 
Q 353 884 353 1716 
Q 353 2575 817 3079 
Q 1281 3584 2069 3584 
Q 2775 3584 3186 3129 
Q 3597 2675 3597 1894 
z
M 3022 2063 
Q 3016 2534 2758 2815 
Q 2500 3097 2075 3097 
Q 1594 3097 1305 2825 
Q 1016 2553 972 2059 
L 3022 2063 
z
" transform="scale(0.015625)"/>
       </defs>
       <use xlink:href="#DejaVuSans-53"/>
       <use xlink:href="#DejaVuSans-52" transform="translate(63.484375 0)"/>
       <use xlink:href="#DejaVuSans-56" transform="translate(124.671875 0)"/>
       <use xlink:href="#DejaVuSans-4c" transform="translate(176.765625 0)"/>
       <use xlink:href="#DejaVuSans-57" transform="translate(204.546875 0)"/>
       <use xlink:href="#DejaVuSans-4c" transform="translate(243.75 0)"/>
       <use xlink:href="#DejaVuSans-59" transform="translate(271.53125 0)"/>
       <use xlink:href="#DejaVuSans-48" transform="translate(330.71875 0)"/>
      </g>
     </g>
    </g>
    <g id="xtick_2">
     <g id="line2d_2">
      <g>
       <use xlink:href="#m4dde295f07" x="247.140215" y="299.235781" style="stroke: #000000; stroke-width: 0.8"/>
      </g>
     </g>
     <g id="text_2">
      <!-- distractor -->
      <g transform="translate(223.06834 313.834219) scale(0.1 -0.1)">
       <defs>
        <path id="DejaVuSans-47" d="M 2906 2969 
L 2906 4863 
L 3481 4863 
L 3481 0 
L 2906 0 
L 2906 525 
Q 2725 213 2448 61 
Q 2172 -91 1784 -91 
Q 1150 -91 751 415 
Q 353 922 353 1747 
Q 353 2572 751 3078 
Q 1150 3584 1784 3584 
Q 2172 3584 2448 3432 
Q 2725 3281 2906 2969 
z
M 947 1747 
Q 947 1113 1208 752 
Q 1469 391 1925 391 
Q 2381 391 2643 752 
Q 2906 1113 2906 1747 
Q 2906 2381 2643 2742 
Q 2381 3103 1925 3103 
Q 1469 3103 1208 2742 
Q 947 2381 947 1747 
z
" transform="scale(0.015625)"/>
        <path id="DejaVuSans-55" d="M 2631 2963 
Q 2534 3019 2420 3045 
Q 2306 3072 2169 3072 
Q 1681 3072 1420 2755 
Q 1159 2438 1159 1844 
L 1159 0 
L 581 0 
L 581 3500 
L 1159 3500 
L 1159 2956 
Q 1341 3275 1631 3429 
Q 1922 3584 2338 3584 
Q 2397 3584 2469 3576 
Q 2541 3569 2628 3553 
L 2631 2963 
z
" transform="scale(0.015625)"/>
        <path id="DejaVuSans-44" d="M 2194 1759 
Q 1497 1759 1228 1600 
Q 959 1441 959 1056 
Q 959 750 1161 570 
Q 1363 391 1709 391 
Q 2188 391 2477 730 
Q 2766 1069 2766 1631 
L 2766 1759 
L 2194 1759 
z
M 3341 1997 
L 3341 0 
L 2766 0 
L 2766 531 
Q 2569 213 2275 61 
Q 1981 -91 1556 -91 
Q 1019 -91 701 211 
Q 384 513 384 1019 
Q 384 1609 779 1909 
Q 1175 2209 1959 2209 
L 2766 2209 
L 2766 2266 
Q 2766 2663 2505 2880 
Q 2244 3097 1772 3097 
Q 1472 3097 1187 3025 
Q 903 2953 641 2809 
L 641 3341 
Q 956 3463 1253 3523 
Q 1550 3584 1831 3584 
Q 2591 3584 2966 3190 
Q 3341 2797 3341 1997 
z
" transform="scale(0.015625)"/>
        <path id="DejaVuSans-46" d="M 3122 3366 
L 3122 2828 
Q 2878 2963 2633 3030 
Q 2388 3097 2138 3097 
Q 1578 3097 1268 2742 
Q 959 2388 959 1747 
Q 959 1106 1268 751 
Q 1578 397 2138 397 
Q 2388 397 2633 464 
Q 2878 531 3122 666 
L 3122 134 
Q 2881 22 2623 -34 
Q 2366 -91 2075 -91 
Q 1284 -91 818 406 
Q 353 903 353 1747 
Q 353 2603 823 3093 
Q 1294 3584 2113 3584 
Q 2378 3584 2631 3529 
Q 2884 3475 3122 3366 
z
" transform="scale(0.015625)"/>
       </defs>
       <use xlink:href="#DejaVuSans-47"/>
       <use xlink:href="#DejaVuSans-4c" transform="translate(63.484375 0)"/>
       <use xlink:href="#DejaVuSans-56" transform="translate(91.265625 0)"/>
       <use xlink:href="#DejaVuSans-57" transform="translate(143.359375 0)"/>
       <use xlink:href="#DejaVuSans-55" transform="translate(182.5625 0)"/>
       <use xlink:href="#DejaVuSans-44" transform="translate(223.671875 0)"/>
       <use xlink:href="#DejaVuSans-46" transform="translate(284.953125 0)"/>
       <use xlink:href="#DejaVuSans-57" transform="translate(339.9375 0)"/>
       <use xlink:href="#DejaVuSans-52" transform="translate(379.140625 0)"/>
       <use xlink:href="#DejaVuSans-55" transform="translate(440.328125 0)"/>
      </g>
     </g>
    </g>
    <g id="xtick_3">
     <g id="line2d_3">
      <g>
       <use xlink:href="#m4dde295f07" x="372.669629" y="299.235781" style="stroke: #000000; stroke-width: 0.8"/>
      </g>
     </g>
     <g id="text_3">
      <!-- wrong target -->
      <g transform="translate(340.440723 313.833437) scale(0.1 -0.1)">
       <defs>
        <path id="DejaVuSans-5a" d="M 269 3500 
L 844 3500 
L 1563 769 
L 2278 3500 
L 2956 3500 
L 3675 769 
L 4391 3500 
L 4966 3500 
L 4050 0 
L 3372 0 
L 2619 2869 
L 1863 0 
L 1184 0 
L 269 3500 
z
" transform="scale(0.015625)"/>
        <path id="DejaVuSans-51" d="M 3513 2113 
L 3513 0 
L 2938 0 
L 2938 2094 
Q 2938 2591 2744 2837 
Q 2550 3084 2163 3084 
Q 1697 3084 1428 2787 
Q 1159 2491 1159 1978 
L 1159 0 
L 581 0 
L 581 3500 
L 1159 3500 
L 1159 2956 
Q 1366 3272 1645 3428 
Q 1925 3584 2291 3584 
Q 2894 3584 3203 3211 
Q 3513 2838 3513 2113 
z
" transform="scale(0.015625)"/>
        <path id="DejaVuSans-4a" d="M 2906 1791 
Q 2906 2416 2648 2759 
Q 2391 3103 1925 3103 
Q 1463 3103 1205 2759 
Q 947 2416 947 1791 
Q 947 1169 1205 825 
Q 1463 481 1925 481 
Q 2391 481 2648 825 
Q 2906 1169 2906 1791 
z
M 3481 434 
Q 3481 -459 3084 -895 
Q 2688 -1331 1869 -1331 
Q 1566 -1331 1297 -1286 
Q 1028 -1241 775 -1147 
L 775 -588 
Q 1028 -725 1275 -790 
Q 1522 -856 1778 -856 
Q 2344 -856 2625 -561 
Q 2906 -266 2906 331 
L 2906 616 
Q 2728 306 2450 153 
Q 2172 0 1784 0 
Q 1141 0 747 490 
Q 353 981 353 1791 
Q 353 2603 747 3093 
Q 1141 3584 1784 3584 
Q 2172 3584 2450 3431 
Q 2728 3278 2906 2969 
L 2906 3500 
L 3481 3500 
L 3481 434 
z
" transform="scale(0.015625)"/>
        <path id="DejaVuSans-3" transform="scale(0.015625)"/>
       </defs>
       <use xlink:href="#DejaVuSans-5a"/>
       <use xlink:href="#DejaVuSans-55" transform="translate(81.78125 0)"/>
       <use xlink:href="#DejaVuSans-52" transform="translate(120.6875 0)"/>
       <use xlink:href="#DejaVuSans-51" transform="translate(181.875 0)"/>
       <use xlink:href="#DejaVuSans-4a" transform="translate(245.25 0)"/>
       <use xlink:href="#DejaVuSans-3" transform="translate(308.734375 0)"/>
       <use xlink:href="#DejaVuSans-57" transform="translate(340.515625 0)"/>
       <use xlink:href="#DejaVuSans-44" transform="translate(379.71875 0)"/>
       <use xlink:href="#DejaVuSans-55" transform="translate(441 0)"/>
       <use xlink:href="#DejaVuSans-4a" transform="translate(480.359375 0)"/>
       <use xlink:href="#DejaVuSans-48" transform="translate(543.84375 0)"/>
       <use xlink:href="#DejaVuSans-57" transform="translate(605.375 0)"/>
      </g>
     </g>
    </g>
    <g id="xtick_4">
     <g id="line2d_4">
      <g>
       <use xlink:href="#m4dde295f07" x="498.199043" y="299.235781" style="stroke: #000000; stroke-width: 0.8"/>
      </g>
     </g>
     <g id="text_4">
      <!-- same freq. -->
      <g transform="translate(471.449043 313.834219) scale(0.1 -0.1)">
       <defs>
        <path id="DejaVuSans-50" d="M 3328 2828 
Q 3544 3216 3844 3400 
Q 4144 3584 4550 3584 
Q 5097 3584 5394 3201 
Q 5691 2819 5691 2113 
L 5691 0 
L 5113 0 
L 5113 2094 
Q 5113 2597 4934 2840 
Q 4756 3084 4391 3084 
Q 3944 3084 3684 2787 
Q 3425 2491 3425 1978 
L 3425 0 
L 2847 0 
L 2847 2094 
Q 2847 2600 2669 2842 
Q 2491 3084 2119 3084 
Q 1678 3084 1418 2786 
Q 1159 2488 1159 1978 
L 1159 0 
L 581 0 
L 581 3500 
L 1159 3500 
L 1159 2956 
Q 1356 3278 1631 3431 
Q 1906 3584 2284 3584 
Q 2666 3584 2933 3390 
Q 3200 3197 3328 2828 
z
" transform="scale(0.015625)"/>
        <path id="DejaVuSans-49" d="M 2375 4863 
L 2375 4384 
L 1825 4384 
Q 1516 4384 1395 4259 
Q 1275 4134 1275 3809 
L 1275 3500 
L 2222 3500 
L 2222 3053 
L 1275 3053 
L 1275 0 
L 697 0 
L 697 3053 
L 147 3053 
L 147 3500 
L 697 3500 
L 697 3744 
Q 697 4328 969 4595 
Q 1241 4863 1831 4863 
L 2375 4863 
z
" transform="scale(0.015625)"/>
        <path id="DejaVuSans-54" d="M 947 1747 
Q 947 1113 1208 752 
Q 1469 391 1925 391 
Q 2381 391 2643 752 
Q 2906 1113 2906 1747 
Q 2906 2381 2643 2742 
Q 2381 3103 1925 3103 
Q 1469 3103 1208 2742 
Q 947 2381 947 1747 
z
M 2906 525 
Q 2725 213 2448 61 
Q 2172 -91 1784 -91 
Q 1150 -91 751 415 
Q 353 922 353 1747 
Q 353 2572 751 3078 
Q 1150 3584 1784 3584 
Q 2172 3584 2448 3432 
Q 2725 3281 2906 2969 
L 2906 3500 
L 3481 3500 
L 3481 -1331 
L 2906 -1331 
L 2906 525 
z
" transform="scale(0.015625)"/>
        <path id="DejaVuSans-11" d="M 684 794 
L 1344 794 
L 1344 0 
L 684 0 
L 684 794 
z
" transform="scale(0.015625)"/>
       </defs>
       <use xlink:href="#DejaVuSans-56"/>
       <use xlink:href="#DejaVuSans-44" transform="translate(52.09375 0)"/>
       <use xlink:href="#DejaVuSans-50" transform="translate(113.375 0)"/>
       <use xlink:href="#DejaVuSans-48" transform="translate(210.78125 0)"/>
       <use xlink:href="#DejaVuSans-3" transform="translate(272.3125 0)"/>
       <use xlink:href="#DejaVuSans-49" transform="translate(304.09375 0)"/>
       <use xlink:href="#DejaVuSans-55" transform="translate(339.296875 0)"/>
       <use xlink:href="#DejaVuSans-48" transform="translate(378.203125 0)"/>
       <use xlink:href="#DejaVuSans-54" transform="translate(439.734375 0)"/>
       <use xlink:href="#DejaVuSans-11" transform="translate(503.21875 0)"/>
      </g>
     </g>
    </g>
   </g>
   <g id="matplotlib.axis_2">
    <g id="ytick_1">
     <g id="line2d_5">
      <path d="M 58.846094 281.795283 
L 560.96375 281.795283 
" clip-path="url(#p9cd6e25f35)" style="fill: none; stroke: #b0b0b0; stroke-opacity: 0.25; stroke-width: 0.8; stroke-linecap: square"/>
     </g>
     <g id="line2d_6">
      <defs>
       <path id="mfb25b9e58e" d="M 0 0 
L -3.5 0 
" style="stroke: #000000; stroke-width: 0.8"/>
      </defs>
      <g>
       <use xlink:href="#mfb25b9e58e" x="58.846094" y="281.795283" style="stroke: #000000; stroke-width: 0.8"/>
      </g>
     </g>
     <g id="text_5">
      <!-- −0.10 -->
      <g transform="translate(21.200781 285.594111) scale(0.1 -0.1)">
       <defs>
        <path id="DejaVuSans-c9c" d="M 678 2272 
L 4684 2272 
L 4684 1741 
L 678 1741 
L 678 2272 
z
" transform="scale(0.015625)"/>
        <path id="DejaVuSans-13" d="M 2034 4250 
Q 1547 4250 1301 3770 
Q 1056 3291 1056 2328 
Q 1056 1369 1301 889 
Q 1547 409 2034 409 
Q 2525 409 2770 889 
Q 3016 1369 3016 2328 
Q 3016 3291 2770 3770 
Q 2525 4250 2034 4250 
z
M 2034 4750 
Q 2819 4750 3233 4129 
Q 3647 3509 3647 2328 
Q 3647 1150 3233 529 
Q 2819 -91 2034 -91 
Q 1250 -91 836 529 
Q 422 1150 422 2328 
Q 422 3509 836 4129 
Q 1250 4750 2034 4750 
z
" transform="scale(0.015625)"/>
        <path id="DejaVuSans-14" d="M 794 531 
L 1825 531 
L 1825 4091 
L 703 3866 
L 703 4441 
L 1819 4666 
L 2450 4666 
L 2450 531 
L 3481 531 
L 3481 0 
L 794 0 
L 794 531 
z
" transform="scale(0.015625)"/>
       </defs>
       <use xlink:href="#DejaVuSans-c9c"/>
       <use xlink:href="#DejaVuSans-13" transform="translate(83.796875 0)"/>
       <use xlink:href="#DejaVuSans-11" transform="translate(147.421875 0)"/>
       <use xlink:href="#DejaVuSans-14" transform="translate(179.203125 0)"/>
       <use xlink:href="#DejaVuSans-13" transform="translate(242.828125 0)"/>
      </g>
     </g>
    </g>
    <g id="ytick_2">
     <g id="line2d_7">
      <path d="M 58.846094 237.445593 
L 560.96375 237.445593 
" clip-path="url(#p9cd6e25f35)" style="fill: none; stroke: #b0b0b0; stroke-opacity: 0.25; stroke-width: 0.8; stroke-linecap: square"/>
     </g>
     <g id="line2d_8">
      <g>
       <use xlink:href="#mfb25b9e58e" x="58.846094" y="237.445593" style="stroke: #000000; stroke-width: 0.8"/>
      </g>
     </g>
     <g id="text_6">
      <!-- −0.05 -->
      <g transform="translate(21.200781 241.244421) scale(0.1 -0.1)">
       <defs>
        <path id="DejaVuSans-18" d="M 691 4666 
L 3169 4666 
L 3169 4134 
L 1269 4134 
L 1269 2991 
Q 1406 3038 1543 3061 
Q 1681 3084 1819 3084 
Q 2600 3084 3056 2656 
Q 3513 2228 3513 1497 
Q 3513 744 3044 326 
Q 2575 -91 1722 -91 
Q 1428 -91 1123 -41 
Q 819 9 494 109 
L 494 744 
Q 775 591 1075 516 
Q 1375 441 1709 441 
Q 2250 441 2565 725 
Q 2881 1009 2881 1497 
Q 2881 1984 2565 2268 
Q 2250 2553 1709 2553 
Q 1456 2553 1204 2497 
Q 953 2441 691 2322 
L 691 4666 
z
" transform="scale(0.015625)"/>
       </defs>
       <use xlink:href="#DejaVuSans-c9c"/>
       <use xlink:href="#DejaVuSans-13" transform="translate(83.796875 0)"/>
       <use xlink:href="#DejaVuSans-11" transform="translate(147.421875 0)"/>
       <use xlink:href="#DejaVuSans-13" transform="translate(179.203125 0)"/>
       <use xlink:href="#DejaVuSans-18" transform="translate(242.828125 0)"/>
      </g>
     </g>
    </g>
    <g id="ytick_3">
     <g id="line2d_9">
      <path d="M 58.846094 193.095903 
L 560.96375 193.095903 
" clip-path="url(#p9cd6e25f35)" style="fill: none; stroke: #b0b0b0; stroke-opacity: 0.25; stroke-width: 0.8; stroke-linecap: square"/>
     </g>
     <g id="line2d_10">
      <g>
       <use xlink:href="#mfb25b9e58e" x="58.846094" y="193.095903" style="stroke: #000000; stroke-width: 0.8"/>
      </g>
     </g>
     <g id="text_7">
      <!-- 0.00 -->
      <g transform="translate(29.580469 196.894731) scale(0.1 -0.1)">
       <use xlink:href="#DejaVuSans-13"/>
       <use xlink:href="#DejaVuSans-11" transform="translate(63.625 0)"/>
       <use xlink:href="#DejaVuSans-13" transform="translate(95.40625 0)"/>
       <use xlink:href="#DejaVuSans-13" transform="translate(159.03125 0)"/>
      </g>
     </g>
    </g>
    <g id="ytick_4">
     <g id="line2d_11">
      <path d="M 58.846094 148.746213 
L 560.96375 148.746213 
" clip-path="url(#p9cd6e25f35)" style="fill: none; stroke: #b0b0b0; stroke-opacity: 0.25; stroke-width: 0.8; stroke-linecap: square"/>
     </g>
     <g id="line2d_12">
      <g>
       <use xlink:href="#mfb25b9e58e" x="58.846094" y="148.746213" style="stroke: #000000; stroke-width: 0.8"/>
      </g>
     </g>
     <g id="text_8">
      <!-- 0.05 -->
      <g transform="translate(29.580469 152.545041) scale(0.1 -0.1)">
       <use xlink:href="#DejaVuSans-13"/>
       <use xlink:href="#DejaVuSans-11" transform="translate(63.625 0)"/>
       <use xlink:href="#DejaVuSans-13" transform="translate(95.40625 0)"/>
       <use xlink:href="#DejaVuSans-18" transform="translate(159.03125 0)"/>
      </g>
     </g>
    </g>
    <g id="ytick_5">
     <g id="line2d_13">
      <path d="M 58.846094 104.396523 
L 560.96375 104.396523 
" clip-path="url(#p9cd6e25f35)" style="fill: none; stroke: #b0b0b0; stroke-opacity: 0.25; stroke-width: 0.8; stroke-linecap: square"/>
     </g>
     <g id="line2d_14">
      <g>
       <use xlink:href="#mfb25b9e58e" x="58.846094" y="104.396523" style="stroke: #000000; stroke-width: 0.8"/>
      </g>
     </g>
     <g id="text_9">
      <!-- 0.10 -->
      <g transform="translate(29.580469 108.195351) scale(0.1 -0.1)">
       <use xlink:href="#DejaVuSans-13"/>
       <use xlink:href="#DejaVuSans-11" transform="translate(63.625 0)"/>
       <use xlink:href="#DejaVuSans-14" transform="translate(95.40625 0)"/>
       <use xlink:href="#DejaVuSans-13" transform="translate(159.03125 0)"/>
      </g>
     </g>
    </g>
    <g id="ytick_6">
     <g id="line2d_15">
      <path d="M 58.846094 60.046833 
L 560.96375 60.046833 
" clip-path="url(#p9cd6e25f35)" style="fill: none; stroke: #b0b0b0; stroke-opacity: 0.25; stroke-width: 0.8; stroke-linecap: square"/>
     </g>
     <g id="line2d_16">
      <g>
       <use xlink:href="#mfb25b9e58e" x="58.846094" y="60.046833" style="stroke: #000000; stroke-width: 0.8"/>
      </g>
     </g>
     <g id="text_10">
      <!-- 0.15 -->
      <g transform="translate(29.580469 63.845661) scale(0.1 -0.1)">
       <use xlink:href="#DejaVuSans-13"/>
       <use xlink:href="#DejaVuSans-11" transform="translate(63.625 0)"/>
       <use xlink:href="#DejaVuSans-14" transform="translate(95.40625 0)"/>
       <use xlink:href="#DejaVuSans-18" transform="translate(159.03125 0)"/>
      </g>
     </g>
    </g>
    <g id="text_11">
     <!-- Effect size -->
     <g transform="translate(14.798437 186.450391) rotate(-90) scale(0.1 -0.1)">
      <defs>
       <path id="DejaVuSans-28" d="M 628 4666 
L 3578 4666 
L 3578 4134 
L 1259 4134 
L 1259 2753 
L 3481 2753 
L 3481 2222 
L 1259 2222 
L 1259 531 
L 3634 531 
L 3634 0 
L 628 0 
L 628 4666 
z
" transform="scale(0.015625)"/>
       <path id="DejaVuSans-13ae" d="M 4531 4863 
L 4531 4384 
L 3981 4384 
Q 3672 4384 3551 4259 
Q 3431 4134 3431 3809 
L 3431 3500 
L 4378 3500 
L 4378 3053 
L 3431 3053 
L 3431 0 
L 2853 0 
L 2853 3053 
L 1275 3053 
L 1275 0 
L 697 0 
L 697 3053 
L 147 3053 
L 147 3500 
L 697 3500 
L 697 3744 
Q 697 4328 969 4595 
Q 1241 4863 1831 4863 
L 2375 4863 
L 2375 4384 
L 1825 4384 
Q 1516 4384 1394 4259 
Q 1275 4134 1275 3809 
L 1275 3500 
L 2853 3500 
L 2853 3744 
Q 2853 4328 3125 4595 
Q 3397 4863 3988 4863 
L 4531 4863 
z
" transform="scale(0.015625)"/>
       <path id="DejaVuSans-5d" d="M 353 3500 
L 3084 3500 
L 3084 2975 
L 922 459 
L 3084 459 
L 3084 0 
L 275 0 
L 275 525 
L 2438 3041 
L 353 3041 
L 353 3500 
z
" transform="scale(0.015625)"/>
      </defs>
      <use xlink:href="#DejaVuSans-28"/>
      <use xlink:href="#DejaVuSans-13ae" transform="translate(63.1875 0)"/>
      <use xlink:href="#DejaVuSans-48" transform="translate(132.078125 0)"/>
      <use xlink:href="#DejaVuSans-46" transform="translate(193.609375 0)"/>
      <use xlink:href="#DejaVuSans-57" transform="translate(248.59375 0)"/>
      <use xlink:href="#DejaVuSans-3" transform="translate(287.796875 0)"/>
      <use xlink:href="#DejaVuSans-56" transform="translate(319.578125 0)"/>
      <use xlink:href="#DejaVuSans-4c" transform="translate(371.671875 0)"/>
      <use xlink:href="#DejaVuSans-5d" transform="translate(399.453125 0)"/>
      <use xlink:href="#DejaVuSans-48" transform="translate(451.9375 0)"/>
     </g>
    </g>
   </g>
   <g id="line2d_17">
    <path d="M 93.366683 163.226594 
L 149.854919 163.226594 
L 149.854919 71.228213 
L 93.366683 71.228213 
L 93.366683 163.226594 
" clip-path="url(#p9cd6e25f35)" style="fill: none; stroke: #000000; stroke-linecap: square"/>
   </g>
   <g id="line2d_18">
    <path d="M 121.610801 163.226594 
L 121.610801 206.333517 
" clip-path="url(#p9cd6e25f35)" style="fill: none; stroke: #000000; stroke-linecap: square"/>
   </g>
   <g id="line2d_19">
    <path d="M 121.610801 71.228213 
L 121.610801 34.905291 
" clip-path="url(#p9cd6e25f35)" style="fill: none; stroke: #000000; stroke-linecap: square"/>
   </g>
   <g id="line2d_20">
    <path d="M 107.488742 206.333517 
L 135.73286 206.333517 
" clip-path="url(#p9cd6e25f35)" style="fill: none; stroke: #000000; stroke-linecap: square"/>
   </g>
   <g id="line2d_21">
    <path d="M 107.488742 34.905291 
L 135.73286 34.905291 
" clip-path="url(#p9cd6e25f35)" style="fill: none; stroke: #000000; stroke-linecap: square"/>
   </g>
   <g id="line2d_22">
    <path d="M 218.896097 244.350098 
L 275.384333 244.350098 
L 275.384333 194.144254 
L 218.896097 194.144254 
L 218.896097 244.350098 
" clip-path="url(#p9cd6e25f35)" style="fill: none; stroke: #000000; stroke-linecap: square"/>
   </g>
   <g id="line2d_23">
    <path d="M 247.140215 244.350098 
L 247.140215 286.648615 
" clip-path="url(#p9cd6e25f35)" style="fill: none; stroke: #000000; stroke-linecap: square"/>
   </g>
   <g id="line2d_24">
    <path d="M 247.140215 194.144254 
L 247.140215 184.808044 
" clip-path="url(#p9cd6e25f35)" style="fill: none; stroke: #000000; stroke-linecap: square"/>
   </g>
   <g id="line2d_25">
    <path d="M 233.018156 286.648615 
L 261.262274 286.648615 
" clip-path="url(#p9cd6e25f35)" style="fill: none; stroke: #000000; stroke-linecap: square"/>
   </g>
   <g id="line2d_26">
    <path d="M 233.018156 184.808044 
L 261.262274 184.808044 
" clip-path="url(#p9cd6e25f35)" style="fill: none; stroke: #000000; stroke-linecap: square"/>
   </g>
   <g id="line2d_27">
    <path clip-path="url(#p9cd6e25f35)" style="fill: none; stroke: #000000; stroke-linecap: square"/>
   </g>
   <g id="line2d_28">
    <path clip-path="url(#p9cd6e25f35)" style="fill: none; stroke: #000000; stroke-linecap: square"/>
   </g>
   <g id="line2d_29">
    <path clip-path="url(#p9cd6e25f35)" style="fill: none; stroke: #000000; stroke-linecap: square"/>
   </g>
   <g id="line2d_30">
    <path clip-path="url(#p9cd6e25f35)" style="fill: none; stroke: #000000; stroke-linecap: square"/>
   </g>
   <g id="line2d_31">
    <path clip-path="url(#p9cd6e25f35)" style="fill: none; stroke: #000000; stroke-linecap: square"/>
   </g>
   <g id="line2d_32">
    <path d="M 469.954925 213.844755 
L 526.443161 213.844755 
L 526.443161 178.921282 
L 469.954925 178.921282 
L 469.954925 213.844755 
" clip-path="url(#p9cd6e25f35)" style="fill: none; stroke: #000000; stroke-linecap: square"/>
   </g>
   <g id="line2d_33">
    <path d="M 498.199043 213.844755 
L 498.199043 262.862894 
" clip-path="url(#p9cd6e25f35)" style="fill: none; stroke: #000000; stroke-linecap: square"/>
   </g>
   <g id="line2d_34">
    <path d="M 498.199043 178.921282 
L 498.199043 154.523843 
" clip-path="url(#p9cd6e25f35)" style="fill: none; stroke: #000000; stroke-linecap: square"/>
   </g>
   <g id="line2d_35">
    <path d="M 484.076984 262.862894 
L 512.321102 262.862894 
" clip-path="url(#p9cd6e25f35)" style="fill: none; stroke: #000000; stroke-linecap: square"/>
   </g>
   <g id="line2d_36">
    <path d="M 484.076984 154.523843 
L 512.321102 154.523843 
" clip-path="url(#p9cd6e25f35)" style="fill: none; stroke: #000000; stroke-linecap: square"/>
   </g>
   <g id="line2d_37">
    <path d="M 58.846094 193.095903 
L 560.96375 193.095903 
" clip-path="url(#p9cd6e25f35)" style="fill: none; stroke: #111827; stroke-width: 0.9; stroke-linecap: square"/>
   </g>
   <g id="line2d_38">
    <path d="M 93.366683 126.092536 
L 149.854919 126.092536 
" clip-path="url(#p9cd6e25f35)" style="fill: none; stroke: #ff7f0e"/>
   </g>
   <g id="line2d_39">
    <path d="M 218.896097 218.960771 
L 275.384333 218.960771 
" clip-path="url(#p9cd6e25f35)" style="fill: none; stroke: #ff7f0e"/>
   </g>
   <g id="line2d_40">
    <path clip-path="url(#p9cd6e25f35)" style="fill: none; stroke: #ff7f0e"/>
   </g>
   <g id="line2d_41">
    <path d="M 469.954925 196.331725 
L 526.443161 196.331725 
" clip-path="url(#p9cd6e25f35)" style="fill: none; stroke: #ff7f0e"/>
   </g>
   <g id="patch_3">
    <path d="M 58.846094 299.235781 
L 58.846094 22.318125 
" style="fill: none; stroke: #000000; stroke-width: 0.8; stroke-linejoin: miter; stroke-linecap: square"/>
   </g>
   <g id="patch_4">
    <path d="M 560.96375 299.235781 
L 560.96375 22.318125 
" style="fill: none; stroke: #000000; stroke-width: 0.8; stroke-linejoin: miter; stroke-linecap: square"/>
   </g>
   <g id="patch_5">
    <path d="M 58.846094 299.235781 
L 560.96375 299.235781 
" style="fill: none; stroke: #000000; stroke-width: 0.8; stroke-linejoin: miter; stroke-linecap: square"/>
   </g>
   <g id="patch_6">
    <path d="M 58.846094 22.318125 
L 560.96375 22.318125 
" style="fill: none; stroke: #000000; stroke-width: 0.8; stroke-linejoin: miter; stroke-linecap: square"/>
   </g>
   <g id="text_12">
    <!-- L7H7 example-level effects by family -->
    <g transform="translate(198.353672 16.318125) scale(0.12 -0.12)">
     <defs>
      <path id="DejaVuSans-2f" d="M 628 4666 
L 1259 4666 
L 1259 531 
L 3531 531 
L 3531 0 
L 628 0 
L 628 4666 
z
" transform="scale(0.015625)"/>
      <path id="DejaVuSans-1a" d="M 525 4666 
L 3525 4666 
L 3525 4397 
L 1831 0 
L 1172 0 
L 2766 4134 
L 525 4134 
L 525 4666 
z
" transform="scale(0.015625)"/>
      <path id="DejaVuSans-2b" d="M 628 4666 
L 1259 4666 
L 1259 2753 
L 3553 2753 
L 3553 4666 
L 4184 4666 
L 4184 0 
L 3553 0 
L 3553 2222 
L 1259 2222 
L 1259 0 
L 628 0 
L 628 4666 
z
" transform="scale(0.015625)"/>
      <path id="DejaVuSans-5b" d="M 3513 3500 
L 2247 1797 
L 3578 0 
L 2900 0 
L 1881 1375 
L 863 0 
L 184 0 
L 1544 1831 
L 300 3500 
L 978 3500 
L 1906 2253 
L 2834 3500 
L 3513 3500 
z
" transform="scale(0.015625)"/>
      <path id="DejaVuSans-4f" d="M 603 4863 
L 1178 4863 
L 1178 0 
L 603 0 
L 603 4863 
z
" transform="scale(0.015625)"/>
      <path id="DejaVuSans-10" d="M 313 2009 
L 1997 2009 
L 1997 1497 
L 313 1497 
L 313 2009 
z
" transform="scale(0.015625)"/>
      <path id="DejaVuSans-45" d="M 3116 1747 
Q 3116 2381 2855 2742 
Q 2594 3103 2138 3103 
Q 1681 3103 1420 2742 
Q 1159 2381 1159 1747 
Q 1159 1113 1420 752 
Q 1681 391 2138 391 
Q 2594 391 2855 752 
Q 3116 1113 3116 1747 
z
M 1159 2969 
Q 1341 3281 1617 3432 
Q 1894 3584 2278 3584 
Q 2916 3584 3314 3078 
Q 3713 2572 3713 1747 
Q 3713 922 3314 415 
Q 2916 -91 2278 -91 
Q 1894 -91 1617 61 
Q 1341 213 1159 525 
L 1159 0 
L 581 0 
L 581 4863 
L 1159 4863 
L 1159 2969 
z
" transform="scale(0.015625)"/>
      <path id="DejaVuSans-5c" d="M 2059 -325 
Q 1816 -950 1584 -1140 
Q 1353 -1331 966 -1331 
L 506 -1331 
L 506 -850 
L 844 -850 
Q 1081 -850 1212 -737 
Q 1344 -625 1503 -206 
L 1606 56 
L 191 3500 
L 800 3500 
L 1894 763 
L 2988 3500 
L 3597 3500 
L 2059 -325 
z
" transform="scale(0.015625)"/>
     </defs>
     <use xlink:href="#DejaVuSans-2f"/>
     <use xlink:href="#DejaVuSans-1a" transform="translate(55.71875 0)"/>
     <use xlink:href="#DejaVuSans-2b" transform="translate(119.34375 0)"/>
     <use xlink:href="#DejaVuSans-1a" transform="translate(194.546875 0)"/>
     <use xlink:href="#DejaVuSans-3" transform="translate(258.171875 0)"/>
     <use xlink:href="#DejaVuSans-48" transform="translate(289.953125 0)"/>
     <use xlink:href="#DejaVuSans-5b" transform="translate(349.734375 0)"/>
     <use xlink:href="#DejaVuSans-44" transform="translate(408.921875 0)"/>
     <use xlink:href="#DejaVuSans-50" transform="translate(470.203125 0)"/>
     <use xlink:href="#DejaVuSans-53" transform="translate(567.609375 0)"/>
     <use xlink:href="#DejaVuSans-4f" transform="translate(631.09375 0)"/>
     <use xlink:href="#DejaVuSans-48" transform="translate(658.875 0)"/>
     <use xlink:href="#DejaVuSans-10" transform="translate(720.40625 0)"/>
     <use xlink:href="#DejaVuSans-4f" transform="translate(756.484375 0)"/>
     <use xlink:href="#DejaVuSans-48" transform="translate(784.265625 0)"/>
     <use xlink:href="#DejaVuSans-59" transform="translate(845.796875 0)"/>
     <use xlink:href="#DejaVuSans-48" transform="translate(904.984375 0)"/>
     <use xlink:href="#DejaVuSans-4f" transform="translate(966.515625 0)"/>
     <use xlink:href="#DejaVuSans-3" transform="translate(994.296875 0)"/>
     <use xlink:href="#DejaVuSans-48" transform="translate(1026.078125 0)"/>
     <use xlink:href="#DejaVuSans-13ae" transform="translate(1087.609375 0)"/>
     <use xlink:href="#DejaVuSans-48" transform="translate(1156.5 0)"/>
     <use xlink:href="#DejaVuSans-46" transform="translate(1218.03125 0)"/>
     <use xlink:href="#DejaVuSans-57" transform="translate(1273.015625 0)"/>
     <use xlink:href="#DejaVuSans-56" transform="translate(1312.21875 0)"/>
     <use xlink:href="#DejaVuSans-3" transform="translate(1364.3125 0)"/>
     <use xlink:href="#DejaVuSans-45" transform="translate(1396.09375 0)"/>
     <use xlink:href="#DejaVuSans-5c" transform="translate(1459.578125 0)"/>
     <use xlink:href="#DejaVuSans-3" transform="translate(1518.765625 0)"/>
     <use xlink:href="#DejaVuSans-49" transform="translate(1550.546875 0)"/>
     <use xlink:href="#DejaVuSans-44" transform="translate(1585.75 0)"/>
     <use xlink:href="#DejaVuSans-50" transform="translate(1647.03125 0)"/>
     <use xlink:href="#DejaVuSans-4c" transform="translate(1744.4375 0)"/>
     <use xlink:href="#DejaVuSans-4f" transform="translate(1772.21875 0)"/>
     <use xlink:href="#DejaVuSans-5c" transform="translate(1800 0)"/>
    </g>
   </g>
  </g>
 </g>
 <defs>
  <clipPath id="p9cd6e25f35">
   <rect x="58.846094" y="22.318125" width="502.117656" height="276.917656"/>
  </clipPath>
 </defs>
</svg>
