<svg width="1200" height="600" xmlns="http://www.w3.org/2000/svg">
  <defs>
    <style>
      .title { font-family: sans-serif; font-size: 24px; font-weight: bold; fill: #1A237E; }
      .era-label { font-family: sans-serif; font-size: 14px; font-weight: bold; fill: #1A237E; }
      .year { font-family: sans-serif; font-size: 12px; font-weight: bold; fill: #C2185B; }
      .event { font-family: sans-serif; font-size: 11px; fill: #444; }
      .line { stroke: #1A237E; stroke-width: 2; fill: none; }
      .milestone { fill: #C2185B; }
      .era-box { fill-opacity: 0.1; stroke-width: 1; stroke: #999; }
    </style>
  </defs>
  <rect width="100%" height="100%" fill="#ffffff"/>
  <text x="600" y="40" class="title" text-anchor="middle">Acceleration of AI History</text>

  <!-- Timeline Base Line -->
  <line x1="50" y1="450" x2="1150" y2="450" class="line" />

  <!-- Era 1: Symbolic / Early AI (1950s - 1980s) -->
  <!-- Wide box to show slow start -->
  <rect x="50" y="80" width="400" height="320" class="era-box" fill="#E8EAF6" />
  <text x="250" y="105" class="era-label" text-anchor="middle">Early AI &amp; Perceptrons</text>

  <circle cx="80" cy="450" r="5" class="milestone" />
  <text x="80" y="475" class="year" text-anchor="middle">1950s</text>
  <text x="80" y="140" class="event" text-anchor="middle">Perceptron (Rosenblatt)</text>

  <rect x="150" y="150" width="200" height="60" fill="#fff" stroke="#C2185B" stroke-dasharray="4" rx="5"/>
  <text x="250" y="175" class="year" text-anchor="middle">1969 - 1980s</text>
  <text x="250" y="195" class="event" text-anchor="middle" font-weight="bold">AI WINTER</text>
  <text x="250" y="205" class="event" text-anchor="middle">(Neural net research stalls)</text>

  <!-- Era 2: Classical ML (1980s - 2012) -->
  <rect x="450" y="80" width="300" height="320" class="era-box" fill="#C8E6C9" />
  <text x="600" y="105" class="era-label" text-anchor="middle">Classical ML Era</text>

  <circle cx="470" cy="450" r="5" class="milestone" />
  <text x="470" y="475" class="year" text-anchor="middle">1986</text>
  <text x="470" y="140" class="event" text-anchor="middle">Backpropagation popularised</text>

  <circle cx="550" cy="450" r="5" class="milestone" />
  <text x="550" y="475" class="year" text-anchor="middle">1990s-00s</text>
  <text x="550" y="240" class="event" text-anchor="middle">SVMs, Random Forests</text>

  <circle cx="680" cy="450" r="5" class="milestone" />
  <text x="680" y="475" class="year" text-anchor="middle">2006</text>
  <text x="680" y="270" class="event" text-anchor="middle">"Deep Learning" rebranding</text>

  <!-- Era 3: Deep Learning Boom (2012 - 2022) -->
  <!-- Narrower box to show acceleration -->
  <rect x="750" y="80" width="200" height="320" class="era-box" fill="#F3E5F5" />
  <text x="850" y="105" class="era-label" text-anchor="middle">Deep Learning Boom</text>

  <circle cx="760" cy="450" r="5" class="milestone" />
  <text x="760" y="475" class="year" text-anchor="middle">2012</text>
  <text x="760" y="140" class="event" text-anchor="middle" font-weight="bold">AlexNet (Mainstream DL)</text>

  <circle cx="820" cy="450" r="5" class="milestone" />
  <text x="820" y="475" class="year" text-anchor="middle">2014</text>
  <text x="820" y="170" class="event" text-anchor="middle">GANs / Attention</text>

  <circle cx="880" cy="450" r="5" class="milestone" />
  <text x="880" y="475" class="year" text-anchor="middle">2017</text>
  <text x="880" y="200" class="event" text-anchor="middle">Transformer</text>

  <circle cx="920" cy="450" r="5" class="milestone" />
  <text x="920" y="475" class="year" text-anchor="middle">2018-20</text>
  <text x="920" y="230" class="event" text-anchor="middle">BERT / GPT / Scaling Laws</text>

  <!-- Era 4: Generative & Reasoning (2022+) -->
  <rect x="950" y="80" width="200" height="320" class="era-box" fill="#FFF3E0" />
  <text x="1050" y="105" class="era-label" text-anchor="middle">GenAI &amp; Reasoning</text>

  <circle cx="980" cy="450" r="5" class="milestone" />
  <text x="980" y="475" class="year" text-anchor="middle">2022</text>
  <text x="980" y="140" class="event" text-anchor="middle">ChatGPT / Diffusion</text>

  <circle cx="1080" cy="450" r="5" class="milestone" />
  <text x="1080" y="475" class="year" text-anchor="middle">2024-25</text>
  <text x="1080" y="170" class="event" text-anchor="middle">Reasoning (RL-based)</text>
  <text x="1080" y="180" class="event" text-anchor="middle">Agents</text>

  <!-- Acceleration Label -->
  <text x="600" y="550" class="event" font-style="italic" text-anchor="middle">Visual width represents relative acceleration of breakthroughs (Horizontal distance is NOT linear with time)</text>
</svg>
